<?xml version="1.0" encoding="UTF-8"?>
<svg width="213px" height="39px" viewBox="0 0 213 39" version="1.1" xmlns="http://www.w3.org/2000/svg" xmlns:xlink="http://www.w3.org/1999/xlink">
    <title>Logo Here</title>
    <g id="New" stroke="none" stroke-width="1" fill="none" fill-rule="evenodd" opacity="0.900000036">
        <g id="Screen_2" transform="translate(-65.000000, -70.000000)" fill-rule="nonzero">
            <g id="Logo-Here" transform="translate(65.048000, 70.200000)">
                <polygon id="Path" fill="#000000" points="2.64 28.38 2.64 0 0 0 0 30.8 19.844 30.8 19.844 28.38"></polygon>
                <path d="M34.672,31.24 C41.272,31.24 46.244,26.268 46.244,19.58 C46.244,12.892 41.272,7.92 34.672,7.92 C28.072,7.92 23.056,12.892 23.056,19.58 C23.056,26.268 28.072,31.24 34.672,31.24 Z M34.672,28.952 C29.524,28.952 25.652,24.948 25.652,19.58 C25.652,14.212 29.524,10.208 34.672,10.208 C39.776,10.208 43.648,14.212 43.648,19.58 C43.648,24.948 39.776,28.952 34.672,28.952 Z" id="Shape" fill="#000000"></path>
                <path d="M69.52,8.36 L69.52,12.408 C67.584,9.592 64.988,7.92 61.204,7.92 C55.044,7.92 50.644,12.628 50.644,18.832 C50.644,25.036 55.044,29.744 61.292,29.744 C65.252,29.744 67.716,28.028 69.52,25.432 L69.52,28.952 C69.52,33.308 65.912,36.432 60.764,36.432 C58.08,36.432 55.792,35.816 52.184,33.968 L52.184,36.74 C55.704,38.236 58.212,38.72 60.808,38.72 C67.496,38.72 72.072,34.452 72.072,28.952 L72.072,8.36 L69.52,8.36 Z M61.776,27.456 C56.76,27.456 53.24,23.76 53.24,18.832 C53.24,13.904 56.804,10.208 61.732,10.208 C65.428,10.208 67.848,12.32 69.52,15.444 L69.52,22.396 C67.98,25.3 65.516,27.456 61.776,27.456 Z" id="Shape" fill="#000000"></path>
                <path d="M89.672,31.24 C96.272,31.24 101.244,26.268 101.244,19.58 C101.244,12.892 96.272,7.92 89.672,7.92 C83.072,7.92 78.056,12.892 78.056,19.58 C78.056,26.268 83.072,31.24 89.672,31.24 Z M89.672,28.952 C84.524,28.952 80.652,24.948 80.652,19.58 C80.652,14.212 84.524,10.208 89.672,10.208 C94.776,10.208 98.648,14.212 98.648,19.58 C98.648,24.948 94.776,28.952 89.672,28.952 Z" id="Shape" fill="#000000"></path>
                <polygon id="Path" fill="#6D38BC" points="137.412 0 137.412 12.584 122.848 12.584 122.848 0 116.864 0 116.864 30.8 122.848 30.8 122.848 17.908 137.412 17.908 137.412 30.8 143.396 30.8 143.396 0"></polygon>
                <path d="M169.928,19.008 C169.928,12.144 165.616,7.92 159.368,7.92 C152.944,7.92 148.104,12.32 148.104,19.14 C148.104,26.752 152.724,31.24 160.688,31.24 C162.448,31.24 165.22,30.976 168.608,29.964 L168.608,25.036 C165.132,26.356 163.064,26.752 161.172,26.752 C156.728,26.752 154.396,25.08 153.868,21.076 L169.928,21.076 L169.928,19.008 Z M159.412,12.056 C162.448,12.056 164.164,14.08 164.604,17.336 L153.868,17.336 C154.352,13.992 156.332,12.056 159.412,12.056 Z" id="Shape" fill="#6D38BC"></path>
                <path d="M180.224,13.244 L180.224,8.36 L174.284,8.36 L174.284,30.8 L180.224,30.8 L180.224,16.5 C181.896,14.608 184.58,13.992 188.848,13.992 L188.848,7.92 C183.7,7.92 181.456,10.648 180.224,13.244 Z" id="Path" fill="#6D38BC"></path>
                <path d="M212.872,19.008 C212.872,12.144 208.56,7.92 202.312,7.92 C195.888,7.92 191.048,12.32 191.048,19.14 C191.048,26.752 195.668,31.24 203.632,31.24 C205.392,31.24 208.164,30.976 211.552,29.964 L211.552,25.036 C208.076,26.356 206.008,26.752 204.116,26.752 C199.672,26.752 197.34,25.08 196.812,21.076 L212.872,21.076 L212.872,19.008 Z M202.356,12.056 C205.392,12.056 207.108,14.08 207.548,17.336 L196.812,17.336 C197.296,13.992 199.276,12.056 202.356,12.056 Z" id="Shape" fill="#6D38BC"></path>
            </g>
        </g>
    </g>
</svg>