<?xml version="1.0" encoding="UTF-8"?>
<svg width="31px" height="28px" viewBox="0 0 31 28" version="1.1" xmlns="http://www.w3.org/2000/svg" xmlns:xlink="http://www.w3.org/1999/xlink">
    <title>home</title>
    <g id="New" stroke="none" stroke-width="1" fill="none" fill-rule="evenodd">
        <g id="Screen_2" transform="translate(-56.000000, -392.000000)" fill="#766D85" fill-rule="nonzero" stroke="#766D85">
            <g id="home" transform="translate(57.000000, 393.000000)">
                <path d="M14.5000287,0 C14.1665513,0 13.6371263,0.0237169924 13.095139,0.489453152 L0.298378444,11.4896043 C0.140452122,11.5940045 0.0344804142,11.7621139 0.00701190998,11.9513844 C-0.0204536646,12.1406549 0.0335616725,12.3327111 0.15509457,12.478969 C0.276628639,12.6249889 0.454242284,12.7110198 0.642379273,12.7149723 C0.830744775,12.7191576 1.01156347,12.6407986 1.13927912,12.5001241 L13.9360396,1.49997298 C14.0195819,1.42812676 14.5103001,1.33325641 14.5,1.33325641 C14.4661255,1.33325641 14.6409865,1.3374417 14.7769462,1.37487722 C14.9126715,1.41231285 15.0445063,1.4832299 15.0639592,1.49997418 L27.8607198,12.5001253 C27.9884354,12.6407998 28.1692482,12.719158 28.3576196,12.7149735 C28.5457566,12.7110206 28.7233702,12.6249901 28.8449043,12.4789702 C28.9664384,12.3327182 29.0204555,12.1406561 28.992987,11.9513856 C28.9655214,11.7621151 28.8595526,11.5940057 28.7016204,11.4896054 L15.9048599,0.489454342 C15.6363858,0.258796412 15.3592105,0.160908163 15.115199,0.093710811 C14.871211,0.0262813134 14.6954313,0 14.4999701,0 L14.5000287,0 Z M3.98957589,12.541759 C3.81562432,12.5446292 3.64968831,12.6174055 3.52861126,12.7443596 C3.40730571,12.8713137 3.3409313,13.0419827 3.34359728,13.2189316 L3.34359728,25.3333837 C3.34359728,25.7016923 3.637331,26 3.99986486,26 L24.999677,26 C25.3622226,26 25.6559301,25.7016804 25.6559301,25.3333837 L25.6559301,13.2189316 C25.6583802,13.0403577 25.5904022,12.868528 25.4670341,12.7413417 C25.3436661,12.6141554 25.1754391,12.5427735 24.9996594,12.5427735 C24.8241083,12.5427735 24.6556527,12.6141554 24.5322847,12.7413417 C24.4089167,12.868528 24.3409427,13.0403577 24.3434563,13.2189316 L24.3434563,24.6667079 L4.65613243,24.6667079 L4.65613243,13.2189316 C4.65887899,13.0385005 4.58952951,12.8645755 4.46387634,12.736919 C4.33845168,12.6095006 4.16724813,12.5390472 3.98963448,12.541759 L3.98957589,12.541759 Z" id="Shape"></path>
            </g>
        </g>
    </g>
</svg>